<svg xmlns="http://www.w3.org/2000/svg" xmlns:xlink="http://www.w3.org/1999/xlink" viewBox="0 0 500 500"><defs><clipPath id="freepik--clip-path--inject-311"><path d="M343.28,340.7H220A29.88,29.88,0,0,1,190,309l10.55-201.17c.91-17.44,15.93-31.71,33.37-31.71H357.15a29.88,29.88,0,0,1,30.05,31.71L376.66,309C375.74,326.43,360.72,340.7,343.28,340.7Z" style="fill:none"></path></clipPath></defs><g id="freepik--Shadow--inject-311"><ellipse cx="250" cy="416.24" rx="193.89" ry="11.32" style="fill:#f5f5f5"></ellipse></g><g id="freepik--Charts--inject-311"><path d="M350.37,347.78H227.13a29.88,29.88,0,0,1-30-31.71l10.54-201.16C208.54,97.47,223.55,83.2,241,83.2H364.24a29.88,29.88,0,0,1,30.05,31.71L383.74,316.07C382.83,333.51,367.81,347.78,350.37,347.78Z" style="fill:#1B9EEE;opacity:0.7000000000000001"></path><rect x="269.92" y="71.61" width="7.67" height="1" style="fill:#1B9EEE"></rect><rect x="236.7" y="71.61" width="26.67" height="1" style="fill:#1B9EEE"></rect><rect x="190.84" y="143.51" width="7.59" height="1" transform="translate(40.55 330.77) rotate(-86.97)" style="fill:#1B9EEE"></rect><path d="M343.28,340.7H220A29.88,29.88,0,0,1,190,309l10.55-201.17c.91-17.44,15.93-31.71,33.37-31.71H357.15a29.88,29.88,0,0,1,30.05,31.71L376.66,309C375.74,326.43,360.72,340.7,343.28,340.7Z" style="fill:#1B9EEE;opacity:0.6000000000000001"></path><g style="clip-path:url(#freepik--clip-path--inject-311)"><path d="M243.09,312.23c-29.3,0-56.26-11.41-75.92-32.12s-29.7-48.36-28.16-77.72a114.34,114.34,0,0,1,17.55-54.86,119.36,119.36,0,0,1,40.68-39.28.25.25,0,0,1,.19,0,.28.28,0,0,1,.16.12l10.09,19.25c.36-.2.72-.4,1.09-.59l.39-.22a.31.31,0,0,1,.19,0,.24.24,0,0,1,.15.13l2.76,5.25a.25.25,0,0,1-.1.33c-25.67,14.35-42.56,41.14-44.06,69.93-1.14,21.58,6.21,41.87,20.69,57.12a76,76,0,0,0,55.8,23.61.23.23,0,0,1,.18.08.22.22,0,0,1,.07.18l-1.5,28.6A.24.24,0,0,1,243.09,312.23ZM197.26,108.82c-33.63,19.7-55.76,55.54-57.76,93.59-1.53,29.23,8.43,56.7,28,77.35s46.25,31.91,75.33,32l1.47-28.09a76.53,76.53,0,0,1-55.9-23.76c-14.57-15.36-22-35.78-20.83-57.49,1.51-28.88,18.4-55.77,44.1-70.23l-2.52-4.81-.18.1c-.43.23-.87.46-1.29.71a.27.27,0,0,1-.2,0,.26.26,0,0,1-.15-.12Z" style="fill:#1B9EEE"></path><path d="M250.21,322.66a.27.27,0,0,1-.19-.08.26.26,0,0,1-.06-.19l1.6-30.59a.25.25,0,0,1,.25-.23c47.65,0,88.45-38.77,90.95-86.43a.25.25,0,0,1,.25-.23h7.28a.24.24,0,0,1,.25.24c.06,2.48,0,5-.09,7.45h22.49a.23.23,0,0,1,.18.08.31.31,0,0,1,.07.2,124.62,124.62,0,0,1-38.11,75.36C312.05,310.11,281.12,322.66,250.21,322.66Zm1.84-30.59-1.58,30.09c30.7-.07,61.4-12.56,84.26-34.29a124.05,124.05,0,0,0,37.93-74.77H350.19A.23.23,0,0,1,350,213a.21.21,0,0,1-.07-.18c.13-2.46.16-5,.11-7.43h-6.8C340.62,253.13,299.78,291.94,252.05,292.07Z" style="fill:#1B9EEE"></path><path d="M350.29,205.41a.26.26,0,0,1-.25-.25c-1.27-50.53-42-90.11-92.77-90.11a101.1,101.1,0,0,0-47.87,12.18.24.24,0,0,1-.34-.1.26.26,0,0,1,.1-.34,101.61,101.61,0,0,1,48.11-12.24,92.22,92.22,0,0,1,93.27,90.6.25.25,0,0,1-.24.26Z" style="fill:#1B9EEE"></path><path d="M384.8,213.1H372.94a.25.25,0,0,1,0-.5h11.62a128,128,0,0,0-14.27-65.94c-15.49-29.47-41.92-51-74.43-60.64-34.58-10.26-71.39-6-103.68,12l5.41,10.3a.26.26,0,0,1-.11.34.25.25,0,0,1-.34-.11l-5.51-10.51a.24.24,0,0,1,.1-.33A136.76,136.76,0,0,1,244,80.92a131.63,131.63,0,0,1,52,4.62c32.64,9.68,59.18,31.3,74.73,60.89a128.48,128.48,0,0,1,14.32,66.43A.25.25,0,0,1,384.8,213.1Z" style="fill:#1B9EEE"></path><path d="M207.58,128.19h-.07a.26.26,0,0,1-.15-.12l-10.22-19.48a.25.25,0,0,1,.45-.23l10.09,19.25c.36-.2.72-.4,1.09-.59l.39-.22a.25.25,0,0,1,.34.11.24.24,0,0,1-.1.33l-.4.22c-.43.23-.87.46-1.29.71A.28.28,0,0,1,207.58,128.19Z" style="fill:#1B9EEE"></path><g style="opacity:0.30000000000000004"><path d="M243.09,312.23c-29.3,0-56.26-11.41-75.92-32.12s-29.7-48.36-28.16-77.72a114.34,114.34,0,0,1,17.55-54.86,119.36,119.36,0,0,1,40.68-39.28.25.25,0,0,1,.19,0,.28.28,0,0,1,.16.12l10.09,19.25c.36-.2.72-.4,1.09-.59l.39-.22a.31.31,0,0,1,.19,0,.24.24,0,0,1,.15.13l2.76,5.25a.25.25,0,0,1-.1.33c-25.67,14.35-42.56,41.14-44.06,69.93-1.14,21.58,6.21,41.87,20.69,57.12a76,76,0,0,0,55.8,23.61.23.23,0,0,1,.18.08.22.22,0,0,1,.07.18l-1.5,28.6A.24.24,0,0,1,243.09,312.23ZM197.26,108.82c-33.63,19.7-55.76,55.54-57.76,93.59-1.53,29.23,8.43,56.7,28,77.35s46.25,31.91,75.33,32l1.47-28.09a76.53,76.53,0,0,1-55.9-23.76c-14.57-15.36-22-35.78-20.83-57.49,1.51-28.88,18.4-55.77,44.1-70.23l-2.52-4.81-.18.1c-.43.23-.87.46-1.29.71a.27.27,0,0,1-.2,0,.26.26,0,0,1-.15-.12Z" style="fill:#fff"></path><path d="M250.21,322.66a.27.27,0,0,1-.19-.08.26.26,0,0,1-.06-.19l1.6-30.59a.25.25,0,0,1,.25-.23c47.65,0,88.45-38.77,90.95-86.43a.25.25,0,0,1,.25-.23h7.28a.24.24,0,0,1,.25.24c.06,2.48,0,5-.09,7.45h22.49a.23.23,0,0,1,.18.08.31.31,0,0,1,.07.2,124.62,124.62,0,0,1-38.11,75.36C312.05,310.11,281.12,322.66,250.21,322.66Zm1.84-30.59-1.58,30.09c30.7-.07,61.4-12.56,84.26-34.29a124.05,124.05,0,0,0,37.93-74.77H350.19A.23.23,0,0,1,350,213a.21.21,0,0,1-.07-.18c.13-2.46.16-5,.11-7.43h-6.8C340.62,253.13,299.78,291.94,252.05,292.07Z" style="fill:#fff"></path><path d="M350.29,205.41a.26.26,0,0,1-.25-.25c-1.27-50.53-42-90.11-92.77-90.11a101.1,101.1,0,0,0-47.87,12.18.24.24,0,0,1-.34-.1.26.26,0,0,1,.1-.34,101.61,101.61,0,0,1,48.11-12.24,92.22,92.22,0,0,1,93.27,90.6.25.25,0,0,1-.24.26Z" style="fill:#fff"></path><path d="M384.8,213.1H372.94a.25.25,0,0,1,0-.5h11.62a128,128,0,0,0-14.27-65.94c-15.49-29.47-41.92-51-74.43-60.64-34.58-10.26-71.39-6-103.68,12l5.41,10.3a.26.26,0,0,1-.11.34.25.25,0,0,1-.34-.11l-5.51-10.51a.24.24,0,0,1,.1-.33A136.76,136.76,0,0,1,244,80.92a131.63,131.63,0,0,1,52,4.62c32.64,9.68,59.18,31.3,74.73,60.89a128.48,128.48,0,0,1,14.32,66.43A.25.25,0,0,1,384.8,213.1Z" style="fill:#fff"></path><path d="M207.58,128.19h-.07a.26.26,0,0,1-.15-.12l-10.22-19.48a.25.25,0,0,1,.45-.23l10.09,19.25c.36-.2.72-.4,1.09-.59l.39-.22a.25.25,0,0,1,.34.11.24.24,0,0,1-.1.33l-.4.22c-.43.23-.87.46-1.29.71A.28.28,0,0,1,207.58,128.19Z" style="fill:#fff"></path></g></g><path d="M250.83,270.69l-1,18.37c-38.89,0-68.78-31.54-66.74-70.42,1.37-26.06,16.73-48.83,38.42-61l8.36,15.91a55.34,55.34,0,0,0-28.4,45.08C200,247.38,222.09,270.69,250.83,270.69Z" style="fill:#1B9EEE"></path><path d="M250.83,270.69l-1,18.37c-38.89,0-68.78-31.54-66.74-70.42,1.37-26.06,16.73-48.83,38.42-61l8.36,15.91a55.34,55.34,0,0,0-28.4,45.08C200,247.38,222.09,270.69,250.83,270.69Z" style="opacity:0.6000000000000001"></path><path d="M333.74,220.41a80.34,80.34,0,0,1-79.3,75.35l1-19.66c30.75,0,57-24.94,58.61-55.69Z" style="fill:#1B9EEE"></path><path d="M333.74,220.41a80.34,80.34,0,0,1-79.3,75.35l1-19.66c30.75,0,57-24.94,58.61-55.69Z" style="opacity:0.30000000000000004"></path><path d="M340.93,225.36H318.69c1.82-34.83-24.92-63-59.71-63A64.79,64.79,0,0,0,227,170.79l-10.11-19.27c41.73-23.38,93.54-9.28,114.82,31.22A82.43,82.43,0,0,1,340.93,225.36Z" style="fill:#fafafa"></path><polygon points="338.5 280.84 318.02 280.84 315.81 323.02 336.29 323.02 338.5 280.84" style="fill:#fafafa"></polygon><polygon points="367.73 266.9 347.25 266.9 344.31 323.02 364.79 323.02 367.73 266.9" style="fill:#1B9EEE"></polygon><polygon points="367.73 266.9 347.25 266.9 344.31 323.02 364.79 323.02 367.73 266.9" style="opacity:0.6000000000000001"></polygon><polygon points="395.49 280.84 375.01 280.84 372.8 323.02 393.28 323.02 395.49 280.84" style="fill:#1B9EEE"></polygon><polygon points="395.49 280.84 375.01 280.84 372.8 323.02 393.28 323.02 395.49 280.84" style="opacity:0.30000000000000004"></polygon><polygon points="393.09 326.61 315.62 326.61 315.67 325.65 393.14 325.65 393.09 326.61" style="fill:#263238"></polygon><polygon points="403.56 148.15 314.26 148.15 316.9 97.7 406.21 97.7 403.56 148.15" style="fill:#fafafa;opacity:0.8"></polygon><path d="M315.87,117.36l-1.61,30.79h89.3l2-38.23c-14.82,0-23.61,16.87-41.94,16.87S340.26,117.36,315.87,117.36Z" style="fill:#1B9EEE"></path><path d="M315.87,117.36l-1.61,30.79h89.3l2-38.23c-14.82,0-23.61,16.87-41.94,16.87S340.26,117.36,315.87,117.36Z" style="opacity:0.1"></path><path d="M315.1,132.08c20.07,0,27.28-11,38.55-11s16.2,11.57,30.24,11.57c14.64,0,21-9.1,21-9.1l-1.29,24.62h-89.3Z" style="fill:#1B9EEE"></path><path d="M315.1,132.08c20.07,0,27.28-11,38.55-11s16.2,11.57,30.24,11.57c14.64,0,21-9.1,21-9.1l-1.29,24.62h-89.3Z" style="opacity:0.5"></path></g></svg>