<svg xmlns="http://www.w3.org/2000/svg" xmlns:xlink="http://www.w3.org/1999/xlink" width="1920" zoomAndPan="magnify" viewBox="0 0 1440 809.999993" height="1080" preserveAspectRatio="xMidYMid meet" version="1.0"><defs><g/><clipPath id="7c8961e51d"><path d="M 207.558594 378.773438 L 247.945312 378.773438 L 247.945312 419.160156 L 207.558594 419.160156 Z M 207.558594 378.773438 " clip-rule="nonzero"/></clipPath><clipPath id="b37a5ed0c4"><path d="M 227.75 378.773438 C 216.597656 378.773438 207.558594 387.816406 207.558594 398.96875 C 207.558594 410.121094 216.597656 419.160156 227.75 419.160156 C 238.902344 419.160156 247.945312 410.121094 247.945312 398.96875 C 247.945312 387.816406 238.902344 378.773438 227.75 378.773438 Z M 227.75 378.773438 " clip-rule="nonzero"/></clipPath></defs><path stroke-linecap="butt" transform="matrix(0, -3.134838, 3.134838, 0, 443.87432, 710.695712)" fill="none" stroke-linejoin="miter" d="M 0.000127517 2.00017 L 195.039831 2.00017 " stroke="#0f81c7" stroke-width="4" stroke-opacity="1" stroke-miterlimit="4"/><path stroke-linecap="round" transform="matrix(3.134838, 0, 0, 3.134838, 3.000006, 260.392243)" fill="none" stroke-linejoin="miter" d="M 2.499628 2.50036 L 32.552512 2.50036 " stroke="#0f81c7" stroke-width="5" stroke-opacity="1" stroke-miterlimit="4"/><path stroke-linecap="round" transform="matrix(3.134838, 0, 0, 3.134838, 3.000006, 537.331001)" fill="none" stroke-linejoin="miter" d="M 2.499628 2.499959 L 33.553112 2.499959 " stroke="#0f81c7" stroke-width="5" stroke-opacity="1" stroke-miterlimit="4"/><path stroke-linecap="butt" transform="matrix(3.134838, 0, 0, 3.134838, 3.000006, 486.440084)" fill="none" stroke-linejoin="miter" d="M -0.00000193672 2.500052 L 35.053389 2.500052 " stroke="#0f81c7" stroke-width="5" stroke-opacity="1" stroke-miterlimit="4"/><path stroke-linecap="butt" transform="matrix(3.134838, 0, 0, 3.134838, 3.000006, 303.317203)" fill="none" stroke-linejoin="miter" d="M -0.00000193672 2.500622 L 35.053389 2.500622 " stroke="#0f81c7" stroke-width="5" stroke-opacity="1" stroke-miterlimit="4"/><path stroke-linecap="butt" transform="matrix(3.134838, 0, 0, 3.134838, 3.000006, 336.276214)" fill="none" stroke-linejoin="miter" d="M -0.00000193672 2.499991 L 35.053389 2.499991 " stroke="#0f81c7" stroke-width="5" stroke-opacity="1" stroke-miterlimit="4"/><path stroke-linecap="round" transform="matrix(0, -3.134838, 3.134838, 0, 2.976412, 552.981616)" fill="none" stroke-linejoin="miter" d="M 2.999673 3.000601 L 90.374589 3.000601 " stroke="#0f81c7" stroke-width="6" stroke-opacity="1" stroke-miterlimit="4"/><path stroke-linecap="round" transform="matrix(0, -3.134838, 3.134838, 0, 97.187425, 552.981616)" fill="none" stroke-linejoin="miter" d="M 2.999673 3.000577 L 90.374589 3.000577 " stroke="#0f81c7" stroke-width="6" stroke-opacity="1" stroke-miterlimit="4"/><path stroke-linecap="round" transform="matrix(0, -3.134838, 3.134838, 0, 162.706947, 553.623088)" fill="none" stroke-linejoin="miter" d="M 2.500267 2.499657 L 88.342508 2.499657 " stroke="#0f81c7" stroke-width="5" stroke-opacity="1" stroke-miterlimit="4"/><path stroke-linecap="round" transform="matrix(0, -3.134838, 3.134838, 0, 128.066983, 552.983008)" fill="none" stroke-linejoin="miter" d="M 2.50044 2.499446 L 88.342682 2.499446 " stroke="#0f81c7" stroke-width="5" stroke-opacity="1" stroke-miterlimit="4"/><path stroke-linecap="round" transform="matrix(3.134838, 0, 0, 3.134838, 129.656601, 268.229332)" fill="none" stroke-linejoin="miter" d="M 2.499518 2.499993 L 12.154123 2.499993 " stroke="#0f81c7" stroke-width="5" stroke-opacity="1" stroke-miterlimit="4"/><path stroke-linecap="round" transform="matrix(3.134838, 0, 0, 3.134838, 129.656601, 537.971057)" fill="none" stroke-linejoin="miter" d="M 2.499518 2.500141 L 12.154123 2.500141 " stroke="#0f81c7" stroke-width="5" stroke-opacity="1" stroke-miterlimit="4"/><path stroke-linecap="round" transform="matrix(3.134838, 0, 0, 3.134838, 129.656601, 491.142331)" fill="none" stroke-linejoin="miter" d="M 2.499518 2.500332 L 12.154123 2.500332 " stroke="#0f81c7" stroke-width="5" stroke-opacity="1" stroke-miterlimit="4"/><path stroke-linecap="round" transform="matrix(-2.166426, -2.265792, 2.265792, -2.166426, 363.769646, 513.912066)" fill="none" stroke-linejoin="miter" d="M 2.499559 2.500227 L 89.303598 2.500146 " stroke="#0f81c7" stroke-width="5" stroke-opacity="1" stroke-miterlimit="4"/><path stroke-linecap="round" transform="matrix(-2.159524, -2.272371, 2.272371, -2.159524, 325.060156, 550.559512)" fill="none" stroke-linejoin="miter" d="M 2.499516 2.500189 L 74.209825 2.50051 " stroke="#0f81c7" stroke-width="5" stroke-opacity="1" stroke-miterlimit="4"/><path stroke-linecap="round" transform="matrix(2.172073, -2.260379, 2.260379, 2.172073, 316.223544, 539.729945)" fill="none" stroke-linejoin="miter" d="M 2.500318 2.499701 L 17.507704 2.499932 " stroke="#0f81c7" stroke-width="5" stroke-opacity="1" stroke-miterlimit="4"/><g clip-path="url(#7c8961e51d)"><g clip-path="url(#b37a5ed0c4)"><path fill="#0f81c7" d="M 207.558594 378.773438 L 247.945312 378.773438 L 247.945312 419.160156 L 207.558594 419.160156 Z M 207.558594 378.773438 " fill-opacity="1" fill-rule="nonzero"/></g></g><g fill="#0f81c7" fill-opacity="1"><g transform="translate(502.626725, 486.559767)"><g><path d="M 81.375 -200.25 C 105.09375 -200.25 123.296875 -192.617188 135.984375 -177.359375 L 116.953125 -160.8125 C 109.597656 -172.394531 97.738281 -178.367188 81.375 -178.734375 C 69.050781 -178.734375 59.023438 -175.789062 51.296875 -169.90625 C 43.578125 -164.019531 39.71875 -156.019531 39.71875 -145.90625 C 39.71875 -137.082031 42.660156 -130.097656 48.546875 -124.953125 C 54.429688 -119.804688 65.460938 -114.75 81.640625 -109.78125 C 102.609375 -103.707031 117.457031 -96.300781 126.1875 -87.5625 C 134.925781 -78.832031 139.296875 -67.019531 139.296875 -52.125 C 139.296875 -34.84375 132.859375 -21.050781 119.984375 -10.75 C 107.109375 -0.457031 90.648438 4.78125 70.609375 4.96875 C 57.179688 4.96875 45.226562 2.578125 34.75 -2.203125 C 24.269531 -6.984375 16.179688 -13.601562 10.484375 -22.0625 L 30.34375 -38.34375 C 34.570312 -31.351562 40.453125 -25.972656 47.984375 -22.203125 C 55.523438 -18.429688 63.523438 -16.546875 71.984375 -16.546875 C 83.578125 -16.546875 93.554688 -19.8125 101.921875 -26.34375 C 110.285156 -32.875 114.46875 -40.914062 114.46875 -50.46875 C 114.46875 -59.113281 112.03125 -65.914062 107.15625 -70.875 C 102.28125 -75.84375 94.238281 -80.078125 83.03125 -83.578125 L 60.6875 -91.015625 C 43.945312 -96.722656 32.128906 -103.847656 25.234375 -112.390625 C 18.335938 -120.941406 14.890625 -131.472656 14.890625 -143.984375 C 14.890625 -160.535156 21.050781 -174.003906 33.375 -184.390625 C 45.695312 -194.773438 61.695312 -200.0625 81.375 -200.25 Z M 81.375 -200.25 "/></g></g></g><g fill="#0f81c7" fill-opacity="1"><g transform="translate(655.98077, 486.559767)"><g><path d="M 79.984375 -132.390625 C 100.398438 -132.390625 116.859375 -125.585938 129.359375 -111.984375 L 112.265625 -96.8125 C 103.617188 -107.289062 92.769531 -112.53125 79.71875 -112.53125 C 66.289062 -112.53125 55.671875 -108.160156 47.859375 -99.421875 C 40.046875 -90.691406 36.140625 -79.066406 36.140625 -64.546875 C 36.140625 -50.753906 40.320312 -39.351562 48.6875 -30.34375 C 57.050781 -21.332031 67.394531 -16.734375 79.71875 -16.546875 C 93.875 -16.546875 104.8125 -21.878906 112.53125 -32.546875 L 128.53125 -17.375 C 116.582031 -3.769531 100.3125 3.125 79.71875 3.3125 C 60.039062 3.125 44.085938 -3.125 31.859375 -15.4375 C 19.628906 -27.757812 13.332031 -44.128906 12.96875 -64.546875 C 13.144531 -85.140625 19.578125 -101.59375 32.265625 -113.90625 C 44.953125 -126.226562 60.859375 -132.390625 79.984375 -132.390625 Z M 79.984375 -132.390625 "/></g></g></g><g fill="#0f81c7" fill-opacity="1"><g transform="translate(788.924402, 486.559767)"><g><path d="M 81.921875 -132.390625 C 101.960938 -132.390625 118.328125 -126.179688 131.015625 -113.765625 C 143.703125 -101.359375 150.320312 -84.953125 150.875 -64.546875 C 150.875 -44.867188 144.4375 -28.726562 131.5625 -16.125 C 118.695312 -3.53125 102.148438 2.945312 81.921875 3.3125 C 61.691406 3.3125 45.234375 -3.078125 32.546875 -15.859375 C 19.859375 -28.640625 13.332031 -44.867188 12.96875 -64.546875 C 12.96875 -84.398438 19.398438 -100.625 32.265625 -113.21875 C 45.140625 -125.820312 61.691406 -132.210938 81.921875 -132.390625 Z M 36.140625 -64.546875 C 36.140625 -50.390625 40.410156 -38.941406 48.953125 -30.203125 C 57.503906 -21.460938 68.492188 -16.910156 81.921875 -16.546875 C 95.347656 -16.546875 106.289062 -21.003906 114.75 -29.921875 C 123.207031 -38.847656 127.523438 -50.390625 127.703125 -64.546875 C 127.703125 -78.515625 123.425781 -90.003906 114.875 -99.015625 C 106.332031 -108.023438 95.253906 -112.53125 81.640625 -112.53125 C 68.398438 -112.53125 57.550781 -108.070312 49.09375 -99.15625 C 40.632812 -90.238281 36.316406 -78.703125 36.140625 -64.546875 Z M 36.140625 -64.546875 "/></g></g></g><g fill="#0f81c7" fill-opacity="1"><g transform="translate(952.75951, 486.559767)"><g><path d="M 43.859375 -208.53125 L 43.859375 0 L 22.34375 0 L 22.34375 -208.53125 Z M 43.859375 -208.53125 "/></g></g></g><g fill="#0f81c7" fill-opacity="1"><g transform="translate(1018.955515, 486.559767)"><g><path d="M 70.0625 -132.390625 C 88.8125 -132.390625 102.460938 -127.976562 111.015625 -119.15625 C 119.566406 -110.332031 123.9375 -97 124.125 -79.15625 L 124.125 -21.234375 C 124.125 -15.722656 124.765625 -8.644531 126.046875 0 L 105.359375 0 C 104.441406 -1.65625 103.984375 -8.09375 103.984375 -19.3125 L 103.4375 -19.3125 C 93.6875 -4.59375 79.523438 2.945312 60.953125 3.3125 C 46.796875 3.3125 35.257812 -0.222656 26.34375 -7.296875 C 17.425781 -14.378906 12.96875 -23.625 12.96875 -35.03125 C 12.96875 -50.65625 19.398438 -62.097656 32.265625 -69.359375 C 45.140625 -76.628906 65.273438 -80.265625 92.671875 -80.265625 L 102.609375 -80.265625 L 102.609375 -83.859375 C 102.609375 -102.609375 91.941406 -112.164062 70.609375 -112.53125 C 55.160156 -112.53125 42.378906 -107.84375 32.265625 -98.46875 L 18.75 -112.53125 C 31.988281 -125.40625 49.09375 -132.023438 70.0625 -132.390625 Z M 36.140625 -37.234375 C 36.140625 -22.710938 45.609375 -15.265625 64.546875 -14.890625 C 75.765625 -14.890625 84.910156 -18.472656 91.984375 -25.640625 C 99.066406 -32.816406 102.609375 -43.300781 102.609375 -57.09375 L 102.609375 -62.0625 L 78.890625 -62.0625 C 66.203125 -62.0625 55.945312 -60.035156 48.125 -55.984375 C 40.3125 -51.941406 36.316406 -45.691406 36.140625 -37.234375 Z M 36.140625 -37.234375 "/></g></g></g><g fill="#0f81c7" fill-opacity="1"><g transform="translate(1162.104353, 486.559767)"><g><path d="M 83.859375 -132.390625 C 87.160156 -132.390625 90.097656 -131.929688 92.671875 -131.015625 L 91.296875 -109.234375 C 87.253906 -110.335938 83.394531 -110.890625 79.71875 -110.890625 C 67.207031 -110.890625 57.78125 -106.796875 51.4375 -98.609375 C 45.09375 -90.421875 41.921875 -78.878906 41.921875 -63.984375 L 41.921875 0 L 20.40625 0 L 20.40625 -100.40625 C 20.40625 -102.976562 20.039062 -112.539062 19.3125 -129.09375 L 39.71875 -129.09375 C 40.082031 -116.21875 40.265625 -109.132812 40.265625 -107.84375 L 40.828125 -107.84375 C 44.316406 -115.195312 49.96875 -121.125 57.78125 -125.625 C 65.601562 -130.132812 74.296875 -132.390625 83.859375 -132.390625 Z M 83.859375 -132.390625 "/></g></g></g><g fill="#0f81c7" fill-opacity="1"><g transform="translate(1259.191837, 486.559767)"><g><path d="M 33.09375 -195.28125 C 37.320312 -195.28125 41 -193.765625 44.125 -190.734375 C 47.257812 -187.703125 48.828125 -183.976562 48.828125 -179.5625 C 48.828125 -174.96875 47.351562 -171.195312 44.40625 -168.25 C 41.46875 -165.3125 37.695312 -163.84375 33.09375 -163.84375 C 28.5 -163.84375 24.726562 -165.3125 21.78125 -168.25 C 18.84375 -171.195312 17.375 -174.96875 17.375 -179.5625 C 17.375 -183.976562 18.9375 -187.703125 22.0625 -190.734375 C 25.1875 -193.765625 28.863281 -195.28125 33.09375 -195.28125 Z M 43.859375 -129.09375 L 43.859375 0 L 22.34375 0 L 22.34375 -129.09375 Z M 43.859375 -129.09375 "/></g></g></g><g fill="#0f81c7" fill-opacity="1"><g transform="translate(1325.387893, 486.559767)"><g><path d="M 59.859375 -132.390625 C 80.453125 -132.210938 95.070312 -124.398438 103.71875 -108.953125 L 85.78125 -97.09375 C 79.53125 -107.382812 70.425781 -112.53125 58.46875 -112.53125 C 51.300781 -112.53125 45.28125 -110.875 40.40625 -107.5625 C 35.53125 -104.257812 33.09375 -99.941406 33.09375 -94.609375 C 33.09375 -85.960938 43.851562 -79.710938 65.375 -75.859375 C 80.820312 -73.097656 91.757812 -68.585938 98.1875 -62.328125 C 104.625 -56.078125 107.84375 -47.710938 107.84375 -37.234375 C 107.84375 -24.546875 103.15625 -14.613281 93.78125 -7.4375 C 84.40625 -0.269531 71.898438 3.3125 56.265625 3.3125 C 44.128906 3.3125 34.15625 1.378906 26.34375 -2.484375 C 18.53125 -6.347656 11.769531 -12.414062 6.0625 -20.6875 L 23.171875 -33.921875 C 28.503906 -27.484375 33.742188 -22.976562 38.890625 -20.40625 C 44.035156 -17.832031 49.828125 -16.546875 56.265625 -16.546875 C 64.546875 -16.546875 71.347656 -18.335938 76.671875 -21.921875 C 82.003906 -25.515625 84.671875 -30.34375 84.671875 -36.40625 C 84.671875 -42.65625 81.867188 -47.34375 76.265625 -50.46875 C 70.660156 -53.601562 61.328125 -56.457031 48.265625 -59.03125 C 35.398438 -61.789062 26.066406 -65.925781 20.265625 -71.4375 C 14.472656 -76.957031 11.578125 -84.585938 11.578125 -94.328125 C 11.578125 -105.179688 16.035156 -114.191406 24.953125 -121.359375 C 33.878906 -128.535156 45.515625 -132.210938 59.859375 -132.390625 Z M 59.859375 -132.390625 "/></g></g></g></svg>